<svg xmlns="http://www.w3.org/2000/svg" width="74" height="74" viewBox="0 0 74 74"><g transform="translate(-7368 -2034)"><circle cx="37" cy="37" r="37" transform="translate(7368 2034)" fill="#fff"/><g transform="translate(7375.5 2059.5)"><path d="M29.18,20.28a15.1,15.1,0,0,1-2.74-1.8,10.919,10.919,0,0,1-1.67-1.78,11.53,11.53,0,0,1-1.26-2.11,8.335,8.335,0,0,1-.63-1.98,10.386,10.386,0,0,1-.13-1.73,12.382,12.382,0,0,1,.08-1.72,11.828,11.828,0,0,1,.39-1.72,8.183,8.183,0,0,1,.74-1.73,7.668,7.668,0,0,1,1.61-1.9A7.983,7.983,0,0,1,28.79,2" stroke="#010101" stroke-linecap="round" stroke-linejoin="round" stroke-width="1"/><path d="M5.79,21.15H.5l5.22-7Z" stroke="#010101" stroke-linecap="round" stroke-linejoin="round" stroke-width="1"/><path d="M15.13,7.39V.74L20.51.6Z" stroke="#010101" stroke-linecap="round" stroke-linejoin="round" stroke-width="1"/><path d="M39.59,21.36V14.32L34.18,21.3Z" stroke="#010101" stroke-linecap="round" stroke-linejoin="round" stroke-width="1"/><path d="M39.45,7.54V.75H33.91Z" stroke="#010101" stroke-linecap="round" stroke-linejoin="round" stroke-width="1"/><line x1="0.4" y1="18.27" transform="translate(28.78 2.01)" stroke="#010101" stroke-linecap="round" stroke-linejoin="round" stroke-width="1"/><path d="M48.02.77,45.01,4.73,53.77,21.5l5.54.06Z" stroke="#010101" stroke-linecap="round" stroke-linejoin="round" stroke-width="1"/><path d="M.59.5H6.84L20.06,21.24H14.78Z" stroke="#010101" stroke-linecap="round" stroke-linejoin="round" stroke-width="1"/></g></g></svg>